<?xml version="1.0" encoding="utf-8"?>
<!-- Generator: Adobe Illustrator 19.1.0, SVG Export Plug-In . SVG Version: 6.00 Build 0)  -->
<svg version="1.1" id="Layer_1" xmlns="http://www.w3.org/2000/svg" xmlns:xlink="http://www.w3.org/1999/xlink" x="0px" y="0px"
	 viewBox="0 0 1231.2 314.4" style="enable-background:new 0 0 1231.2 314.4;" xml:space="preserve">
<style type="text/css">
	.st0{fill:url(#SVGID_1_);}
	.st1{fill:url(#SVGID_2_);}
	.st2{fill:url(#SVGID_3_);}
	.st3{fill:url(#SVGID_4_);}
	.st4{fill:url(#SVGID_5_);}
	.st5{fill:url(#SVGID_6_);}
	.st6{fill:#5A5A5D;}
	.st7{fill:#383838;stroke:#4B4B4D;stroke-width:0.2819;}
	.st8{fill:url(#SVGID_7_);}
	.st9{fill:url(#SVGID_8_);}
	.st10{fill:url(#SVGID_9_);}
	.st11{fill:#383838;stroke:#4B4B4D;stroke-width:0.2839;}
	.st12{fill:url(#SVGID_10_);}
	.st13{fill:#4B4B4D;}
	.st14{opacity:0.23;fill:#221F1F;}
	.st15{fill:#A8ABAD;}
	.st16{fill:#F06A25;}
	.st17{fill:#6E7071;}
</style>
<g>
	<radialGradient id="SVGID_1_" cx="648.3779" cy="227.8221" r="584.2635" gradientUnits="userSpaceOnUse">
		<stop  offset="0" style="stop-color:#F8AE42"/>
		<stop  offset="1.026167e-02" style="stop-color:#F8AB40"/>
		<stop  offset="6.095750e-02" style="stop-color:#F8A138"/>
		<stop  offset="0.1228" style="stop-color:#F89B33"/>
		<stop  offset="0.2269" style="stop-color:#F89A32"/>
		<stop  offset="0.4691" style="stop-color:#F69330"/>
		<stop  offset="0.8523" style="stop-color:#F28329"/>
		<stop  offset="1" style="stop-color:#F07B27"/>
	</radialGradient>
	<path class="st0" d="M1086.3,235.3c2.3,11.1,7.9,20.8,16.7,29c8.8,8.2,18.7,12.3,29.5,12.3c7.5,0,15.7-2,24.6-5.9
		c10.8-4.6,16.2-10,16.2-16.2l58-0.5c-8.2,19.3-22.1,34.4-41.8,45.2c-18.3,10.1-38.5,15.2-60.4,15.2c-28.2,0-51.5-8.8-70-26.3
		c-18.5-17.5-27.8-40.4-27.8-68.5c0-29.1,9.3-52.3,27.8-69.5c18.5-17.2,42.5-25.8,72-25.8c32.1,0,57.2,10.6,75.2,31.9
		c16.7,19.7,25.1,46,25.1,79.1H1086.3z M1176.2,201.4c-2.3-11.8-7.2-21.4-14.7-29c-8.5-8.2-18.4-12.3-29.5-12.3
		c-11.5,0-21,3.9-28.7,11.8c-7.7,7.9-12.9,17.7-15.5,29.5H1176.2z"/>
	<radialGradient id="SVGID_2_" cx="648.3652" cy="227.82" r="584.2933" gradientUnits="userSpaceOnUse">
		<stop  offset="0" style="stop-color:#F8AE42"/>
		<stop  offset="1.026167e-02" style="stop-color:#F8AB40"/>
		<stop  offset="6.095750e-02" style="stop-color:#F8A138"/>
		<stop  offset="0.1228" style="stop-color:#F89B33"/>
		<stop  offset="0.2269" style="stop-color:#F89A32"/>
		<stop  offset="0.4691" style="stop-color:#F69330"/>
		<stop  offset="0.8523" style="stop-color:#F28329"/>
		<stop  offset="1" style="stop-color:#F07B27"/>
	</radialGradient>
	<path class="st1" d="M965.4,308.5V0h55v308.5H965.4z"/>
	<radialGradient id="SVGID_3_" cx="648.3847" cy="227.822" r="584.2648" gradientUnits="userSpaceOnUse">
		<stop  offset="0" style="stop-color:#F8AE42"/>
		<stop  offset="1.026167e-02" style="stop-color:#F8AB40"/>
		<stop  offset="6.095750e-02" style="stop-color:#F8A138"/>
		<stop  offset="0.1228" style="stop-color:#F89B33"/>
		<stop  offset="0.2269" style="stop-color:#F89A32"/>
		<stop  offset="0.4691" style="stop-color:#F69330"/>
		<stop  offset="0.8523" style="stop-color:#F28329"/>
		<stop  offset="1" style="stop-color:#F07B27"/>
	</radialGradient>
	<path class="st2" d="M892.7,308.5v-18.2c-4.9,6.5-13.3,11.8-25.1,15.7c-10.5,3.6-20.5,5.4-30,5.4c-26.2,0-47.2-9-63.1-27
		c-15.9-18-23.8-40.3-23.8-66.8c0-26.2,7.8-48.1,23.3-65.8c15.5-17.7,36.3-26.5,62.1-26.5c29.1,0,48,7.9,56.5,23.6V0h53.6v308.5
		H892.7z M892.7,205.9c0-9.8-4.7-19.2-14-28.3c-9.3-9-18.9-13.5-28.7-13.5c-14.1,0-25.2,5.7-33.4,17.2
		c-7.2,10.2-10.8,22.6-10.8,37.3c0,14.4,3.6,26.7,10.8,36.9c8.2,11.8,19.3,17.7,33.4,17.7c8.5,0,17.8-4,27.8-12
		c10-8,15-16.3,15-24.8V205.9z"/>
	<radialGradient id="SVGID_4_" cx="648.3899" cy="227.8221" r="584.2419" gradientUnits="userSpaceOnUse">
		<stop  offset="0" style="stop-color:#F8AE42"/>
		<stop  offset="1.026167e-02" style="stop-color:#F8AB40"/>
		<stop  offset="6.095750e-02" style="stop-color:#F8A138"/>
		<stop  offset="0.1228" style="stop-color:#F89B33"/>
		<stop  offset="0.2269" style="stop-color:#F89A32"/>
		<stop  offset="0.4691" style="stop-color:#F69330"/>
		<stop  offset="0.8523" style="stop-color:#F28329"/>
		<stop  offset="1" style="stop-color:#F07B27"/>
	</radialGradient>
	<path class="st3" d="M647,313.5c-27.8,0-50.8-8.8-69-26.5c-18.2-17.7-27.3-40.4-27.3-68.3c0-27.8,9.1-50.6,27.3-68.3
		c18.2-17.7,41.2-26.5,69-26.5c27.8,0,50.9,8.8,69.3,26.5c18.3,17.7,27.5,40.5,27.5,68.3c0,27.9-9.2,50.6-27.5,68.3
		C698,304.6,674.9,313.5,647,313.5z M647,168c-13.3,0-23.5,5-30.6,15.1c-7.1,10-10.7,22-10.7,35.8c0,13.8,3.3,25.5,9.9,35.1
		c7.6,10.9,18.1,16.3,31.3,16.3c13.2,0,23.7-5.4,31.3-16.3c7-9.5,10.4-21.2,10.4-35.1c0-13.8-3.3-25.5-9.9-35.1
		C671.2,173.3,660.6,168,647,168z"/>
	<radialGradient id="SVGID_5_" cx="648.3943" cy="227.8221" r="584.2417" gradientUnits="userSpaceOnUse">
		<stop  offset="0" style="stop-color:#F8AE42"/>
		<stop  offset="1.026167e-02" style="stop-color:#F8AB40"/>
		<stop  offset="6.095750e-02" style="stop-color:#F8A138"/>
		<stop  offset="0.1228" style="stop-color:#F89B33"/>
		<stop  offset="0.2269" style="stop-color:#F89A32"/>
		<stop  offset="0.4691" style="stop-color:#F69330"/>
		<stop  offset="0.8523" style="stop-color:#F28329"/>
		<stop  offset="1" style="stop-color:#F07B27"/>
	</radialGradient>
	<path class="st4" d="M448.1,313.5c-27.8,0-50.8-8.8-69-26.5c-18.2-17.7-27.3-40.4-27.3-68.3c0-27.8,9.1-50.6,27.3-68.3
		c18.2-17.7,41.2-26.5,69-26.5c27.8,0,50.9,8.8,69.3,26.5c18.3,17.7,27.5,40.5,27.5,68.3c0,27.9-9.2,50.6-27.5,68.3
		C499,304.6,475.9,313.5,448.1,313.5z M448.1,168c-13.3,0-23.5,5-30.6,15.1c-7.1,10-10.7,22-10.7,35.8c0,13.8,3.3,25.5,9.9,35.1
		c7.6,10.9,18.1,16.3,31.3,16.3c13.2,0,23.7-5.4,31.3-16.3c7-9.5,10.4-21.2,10.4-35.1c0-13.8-3.3-25.5-9.9-35.1
		C472.3,173.3,461.7,168,448.1,168z"/>
	<g>
		<radialGradient id="SVGID_6_" cx="648.3638" cy="227.9102" r="584.1976" gradientUnits="userSpaceOnUse">
			<stop  offset="0" style="stop-color:#F8AE42"/>
			<stop  offset="1.026167e-02" style="stop-color:#F8AB40"/>
			<stop  offset="6.095750e-02" style="stop-color:#F8A138"/>
			<stop  offset="0.1228" style="stop-color:#F89B33"/>
			<stop  offset="0.2269" style="stop-color:#F89A32"/>
			<stop  offset="0.4691" style="stop-color:#F69330"/>
			<stop  offset="0.8523" style="stop-color:#F28329"/>
			<stop  offset="1" style="stop-color:#F07B27"/>
		</radialGradient>
		<path class="st5" d="M288.9,309.1V201c0-22.6-9.3-33.9-28-33.9c-18.7,0-28,11.3-28,33.9v108.1h-55V201c0-22.6-9.2-33.9-27.5-33.9
			c-18.7,0-28,11.3-28,33.9v108.1h-55V194.7c0-23.6,8.2-41.4,24.6-53.5c14.4-10.8,33.9-16.2,58.5-16.2c24.9,0,43.2,6.4,55,19.2
			c10.1-12.8,28.7-19.2,55.5-19.2c24.6,0,44,5.4,58.5,16.2c16.4,12.1,24.6,30,24.6,53.5v114.5H288.9z"/>
		<path class="st6" d="M73.9,151.1c-1.7,8.5-3.3,17-5,25.5l-0.4,3.2c51.9,17.6,101.2,1.5,127.1-43.9l-1.5-2.1
			C156.6,109.6,121.3,135.2,73.9,151.1"/>
		<path class="st7" d="M0.8,145.8"/>
		<linearGradient id="SVGID_7_" gradientUnits="userSpaceOnUse" x1="72.7648" y1="173.939" x2="122.3142" y2="112.3311">
			<stop  offset="0" style="stop-color:#919495"/>
			<stop  offset="3.812815e-02" style="stop-color:#868789"/>
			<stop  offset="0.2623" style="stop-color:#4F4C4D"/>
			<stop  offset="0.4196" style="stop-color:#2F2C2D"/>
			<stop  offset="0.4952" style="stop-color:#231F20"/>
		</linearGradient>
		<path class="st8" d="M112.2,107.1c-31.9,0-50.6,17.1-43.3,69.5l0,0c6.7-9.8,14.4-18.4,16.1-29.2c19.3-15.6,39.6-26.8,66.6-26.8
			c2.4,0,6.2-2,4.7-6.3C140,109.9,125,107.1,112.2,107.1"/>
		<linearGradient id="SVGID_8_" gradientUnits="userSpaceOnUse" x1="69.9213" y1="174.7626" x2="191.4344" y2="125.3461">
			<stop  offset="2.002062e-02" style="stop-color:#545152"/>
			<stop  offset="8.145386e-02" style="stop-color:#484546"/>
			<stop  offset="0.1396" style="stop-color:#413E3F"/>
			<stop  offset="0.1897" style="stop-color:#3F3C3D"/>
			<stop  offset="0.3508" style="stop-color:#343031"/>
			<stop  offset="0.5085" style="stop-color:#2E2B2C"/>
			<stop  offset="0.6814" style="stop-color:#2B2828"/>
			<stop  offset="0.8682" style="stop-color:#272324"/>
			<stop  offset="1" style="stop-color:#252122"/>
		</linearGradient>
		<path class="st9" d="M162.5,109.9c-3.3-2.3-69.2,18.7-88.6,34.3c-1.7,10.8-3.3,21.5-5,32.3l0,0c18.9-6.8,31.1-11.3,44.1-11.3
			c13.8,0,23.1,2.7,35,10.5c1.5-0.6,3-1.3,4.5-2.1c16.7-8.2,31.1-21.5,41.6-39.8C187.2,126.1,168.5,112.3,162.5,109.9z"/>
		<g>
			<linearGradient id="SVGID_9_" gradientUnits="userSpaceOnUse" x1="68.8868" y1="169.7809" x2="147.9582" y2="169.7809">
				<stop  offset="0" style="stop-color:#919495"/>
				<stop  offset="0.2055" style="stop-color:#737273"/>
				<stop  offset="0.468" style="stop-color:#545151"/>
				<stop  offset="0.6976" style="stop-color:#3E3B3C"/>
				<stop  offset="0.8826" style="stop-color:#322E2F"/>
				<stop  offset="1" style="stop-color:#2D292A"/>
			</linearGradient>
			<path class="st10" d="M133.5,157.1c-20.3-4.5-47.8,7.1-64.6,19.5c28,9.5,55.6,9.1,79.1-0.9C147,168.6,143.8,159.4,133.5,157.1z"
				/>
		</g>
		<path class="st11" d="M1.7,145.3"/>
		<linearGradient id="SVGID_10_" gradientUnits="userSpaceOnUse" x1="1.493818e-07" y1="110.741" x2="228.2398" y2="110.741">
			<stop  offset="0" style="stop-color:#919495"/>
			<stop  offset="2.961165e-02" style="stop-color:#898A8C"/>
			<stop  offset="0.1507" style="stop-color:#6C6B6B"/>
			<stop  offset="0.2765" style="stop-color:#535252"/>
			<stop  offset="0.4054" style="stop-color:#413F3F"/>
			<stop  offset="0.5384" style="stop-color:#343131"/>
			<stop  offset="0.6772" style="stop-color:#2A2828"/>
			<stop  offset="0.8255" style="stop-color:#242121"/>
			<stop  offset="1" style="stop-color:#221F1F"/>
		</linearGradient>
		<path class="st12" d="M0,144.1c80.4-47.7,135-60.2,228.2-69.8l-1.2,2.5c-27.8,20.2-87.5,63.5-87.5,63.5l-15.1,0.8
			c-32.1,10-80.8,4.8-121.7,4.3C1.9,145.3,0,144.1,0,144.1z"/>
		<polygon class="st13" points="139.2,142.1 138.6,139.8 228.2,74.3 228.9,76.8 		"/>
		<path class="st14" d="M121.6,110.4C122.7,120.7,120.6,100.2,121.6,110.4"/>
		<polygon class="st15" points="0.7,146.5 0,144.1 138.6,139.8 139.2,142.1 		"/>
		<path class="st16" d="M111.5,109.9c-17.5,4.6-52.2,14.4-75.9,22.3l-1.3,0.4c-16.7,5.6-24.7,8.5-25.2,12.5
			c-2.3,18.4-0.9,42.2-0.9,42.5l0.2,6.4c-9.7,27.6,0.1,49.6,8.4,69.8c0.1-24.9,1.1-45.2-6-71c-0.2-3.8-1.5-30.4,0.6-47.3
			c0.3-2.8,11.7-6.6,23.6-10.6l1.3-0.4c23.6-8,58.2-17.7,75.7-22.3L111.5,109.9z"/>
		<g>
			<path class="st17" d="M113.8,110c0.3,1.1-1.1,2.4-3.2,3c-2.1,0.6-4,0.2-4.3-0.9c-0.3-1.1,1.1-2.4,3.2-3
				C111.6,108.5,113.5,108.9,113.8,110z"/>
		</g>
	</g>
</g>
<g>
</g>
<g>
</g>
<g>
</g>
<g>
</g>
<g>
</g>
<g>
</g>
</svg>
