<?xml version="1.0" encoding="utf-8"?>
<!-- Generator: Adobe Illustrator 19.1.0, SVG Export Plug-In . SVG Version: 6.00 Build 0)  -->
<svg version="1.1" id="Layer_1" xmlns="http://www.w3.org/2000/svg" xmlns:xlink="http://www.w3.org/1999/xlink" x="0px" y="0px"
	 viewBox="0 0 439.9 439.9" style="enable-background:new 0 0 439.9 439.9;" xml:space="preserve">
<style type="text/css">
	.st0{fill:#F98012;}
	.st1{fill:#FFFFFF;}
	.st2{fill:#5A595C;}
	.st3{fill:#383738;stroke:#4A4A4C;stroke-width:2.3683;}
	.st4{fill:url(#SVGID_1_);}
	.st5{fill:url(#SVGID_2_);}
	.st6{fill:url(#SVGID_3_);}
	.st7{fill:#383738;stroke:#4A4A4C;stroke-width:2.3845;}
	.st8{fill:url(#SVGID_4_);}
	.st9{fill:#4A4A4C;}
	.st10{opacity:0.23;fill:#211F1F;}
	.st11{fill:#A7AAAB;}
	.st12{fill:#6E6F71;}
</style>
<circle class="st0" cx="219.9" cy="219.9" r="219.9"/>
<g>
	<g>
		<path class="st1" d="M306.5,323.5V221c0-21.4-8.9-32.2-26.6-32.2c-17.7,0-26.6,10.7-26.6,32.2v102.6h-52.2V221
			c0-21.4-8.7-32.2-26.1-32.2c-17.7,0-26.6,10.7-26.6,32.2v102.6H96.2V214.9c0-22.4,7.8-39.3,23.3-50.8
			c13.7-10.3,32.2-15.4,55.5-15.4c23.6,0,41,6.1,52.2,18.2c9.6-12.1,27.2-18.2,52.7-18.2c23.3,0,41.8,5.1,55.5,15.4
			c15.5,11.5,23.3,28.4,23.3,50.8v108.6H306.5z"/>
		<path class="st2" d="M102.5,173.6c-1.6,8.1-3.2,16.1-4.8,24.2l-0.3,3c49.3,16.7,96.1,1.4,120.7-41.7l-1.5-2
			C181,134.1,147.4,158.4,102.5,173.6"/>
		<path class="st3" d="M33.1,168.5"/>
		<linearGradient id="SVGID_1_" gradientUnits="userSpaceOnUse" x1="101.4055" y1="195.2457" x2="148.4371" y2="136.7684">
			<stop  offset="0" style="stop-color:#909294"/>
			<stop  offset="0.1497" style="stop-color:#6B6B6D"/>
			<stop  offset="0.3826" style="stop-color:#373435"/>
			<stop  offset="0.4952" style="stop-color:#221F1F"/>
		</linearGradient>
		<path class="st4" d="M138.8,131.8c-30.3,0-48,16.3-41.1,66l0,0c6.4-9.3,13.7-17.5,15.3-27.7c18.4-14.9,37.6-25.4,63.2-25.4
			c2.3,0,5.9-1.9,4.5-6C165.2,134.5,151,131.8,138.8,131.8"/>
		<linearGradient id="SVGID_2_" gradientUnits="userSpaceOnUse" x1="98.7065" y1="196.0274" x2="214.045" y2="149.122">
			<stop  offset="2.002062e-02" style="stop-color:#535151"/>
			<stop  offset="3.008952e-02" style="stop-color:#514F4F"/>
			<stop  offset="0.1158" style="stop-color:#434142"/>
			<stop  offset="0.1897" style="stop-color:#3E3C3D"/>
			<stop  offset="0.3508" style="stop-color:#343031"/>
			<stop  offset="0.5085" style="stop-color:#2D2A2B"/>
			<stop  offset="0.6814" style="stop-color:#2B2828"/>
			<stop  offset="0.8682" style="stop-color:#262324"/>
			<stop  offset="1" style="stop-color:#252122"/>
		</linearGradient>
		<path class="st5" d="M186.6,134.5c-3.1-2.2-65.7,17.7-84.1,32.6c-1.6,10.2-3.2,20.4-4.8,30.7l0,0c17.9-6.5,29.6-10.8,41.9-10.8
			c13.1,0,22,2.6,33.2,9.9c1.5-0.6,2.9-1.3,4.3-2c15.9-7.8,29.5-20.4,39.5-37.8C210,149.8,192.3,136.7,186.6,134.5z"/>
		<g>
			<linearGradient id="SVGID_3_" gradientUnits="userSpaceOnUse" x1="97.7246" y1="191.2989" x2="172.778" y2="191.2989">
				<stop  offset="0" style="stop-color:#909294"/>
				<stop  offset="0.2769" style="stop-color:#6C6C6D"/>
				<stop  offset="0.5878" style="stop-color:#4A4849"/>
				<stop  offset="0.84" style="stop-color:#353132"/>
				<stop  offset="1" style="stop-color:#2D292A"/>
			</linearGradient>
			<path class="st6" d="M159.1,179.3c-19.3-4.3-45.4,6.7-61.3,18.5c26.5,9,52.8,8.6,75.1-0.8C171.9,190.2,168.8,181.4,159.1,179.3z"
				/>
		</g>
		<path class="st7" d="M34,168.1"/>
		<path class="st7" d="M121.6,114.6"/>
		<linearGradient id="SVGID_4_" gradientUnits="userSpaceOnUse" x1="32.3382" y1="135.2591" x2="248.9801" y2="135.2591">
			<stop  offset="0" style="stop-color:#909294"/>
			<stop  offset="0.1179" style="stop-color:#747577"/>
			<stop  offset="0.2738" style="stop-color:#565657"/>
			<stop  offset="0.4361" style="stop-color:#3F3E3E"/>
			<stop  offset="0.6057" style="stop-color:#2E2D2D"/>
			<stop  offset="0.7868" style="stop-color:#242222"/>
			<stop  offset="1" style="stop-color:#211F1F"/>
		</linearGradient>
		<path class="st8" d="M32.3,166.9c76.3-45.3,128.1-57.1,216.6-66.3l-1.2,2.4c-26.4,19.2-83,60.3-83,60.3l-14.3,0.7
			c-30.4,9.5-76.7,4.5-115.5,4.1C34.1,168.1,32.3,166.9,32.3,166.9z"/>
		<polygon class="st9" points="164.5,165 163.9,162.8 249,100.7 249.6,103 		"/>
		<path class="st10" d="M147.8,134.9C148.8,144.7,146.8,125.2,147.8,134.9"/>
		<polygon class="st11" points="33,169.2 32.3,166.9 163.9,162.8 164.5,165 		"/>
		<path class="st1" d="M138.2,134.5c-16.6,4.4-49.5,13.6-72,21.2l-1.3,0.4c-15.8,5.3-23.5,8.1-23.9,11.9c-2.2,17.5-0.8,40-0.8,40.3
			l0.2,6.1c-9.2,26.2,0.1,47.1,8,66.2c0.1-23.7,1-42.9-5.7-67.4c-0.2-3.6-1.4-28.8,0.6-44.9c0.3-2.6,11.1-6.2,22.4-10.1l1.3-0.4
			c22.4-7.6,55.3-16.8,71.9-21.2L138.2,134.5z"/>
		<g>
			<path class="st12" d="M140.3,134.6c0.3,1-1.1,2.3-3,2.8c-2,0.6-3.8,0.2-4.1-0.9c-0.3-1,1.1-2.3,3-2.8
				C138.2,133.2,140,133.5,140.3,134.6z"/>
		</g>
	</g>
</g>
<g>
</g>
<g>
</g>
<g>
</g>
<g>
</g>
<g>
</g>
<g>
</g>
<g>
</g>
<g>
</g>
<g>
</g>
<g>
</g>
<g>
</g>
<g>
</g>
<g>
</g>
<g>
</g>
<g>
</g>
</svg>
